<?xml version="1.0" encoding="UTF-8"?>
<svg xmlns="http://www.w3.org/2000/svg" viewBox="0 0 24 24" width="64" height="64">
  <circle cx="12" cy="12" r="11" fill="white" />
  
  <path 
    d="M12 2C6.477 2 2 6.477 2 12c0 4.42 2.87 8.17 6.84 9.5.5.08.66-.23.66-.5v-1.69c-2.77.6-3.36-1.34-3.36-1.34-.46-1.16-1.11-1.47-1.11-1.47-.91-.62.07-.6.07-.6 1 .07 1.53 1.03 1.53 1.03.89 1.52 2.34 1.08 2.91.83.09-.65.35-1.09.63-1.34-2.22-.25-4.55-1.11-4.55-4.94 0-1.09.39-1.98 1.03-2.67-.1-.25-.45-1.26.1-2.64 0 0 .84-.27 2.75 1.02.8-.22 1.65-.33 2.5-.33.85 0 1.7.11 2.5.33 1.91-1.29 2.75-1.02 2.75-1.02.55 1.38.2 2.39.1 2.64.64.69 1.03 1.58 1.03 2.67 0 3.84-2.33 4.68-4.55 4.93.36.31.68.92.68 1.85v2.75c0 .28.16.59.67.5C19.13 20.17 22 16.42 22 12c0-5.523-4.477-10-10-10z" 
    fill="black" />
</svg>
